<svg width="23" height="23" viewBox="0 0 23 23" fill="none" xmlns="http://www.w3.org/2000/svg">
<g clip-path="url(#clip0_1_349)">
<g clip-path="url(#clip1_1_349)">
<g clip-path="url(#clip2_1_349)">
<path d="M0 5.625C0 4.87908 0.296316 4.16371 0.823762 3.63626C1.35121 3.10882 2.06658 2.8125 2.8125 2.8125H19.6875C20.4334 2.8125 21.1488 3.10882 21.6762 3.63626C22.2037 4.16371 22.5 4.87908 22.5 5.625V16.875C22.5 17.6209 22.2037 18.3363 21.6762 18.8637C21.1488 19.3912 20.4334 19.6875 19.6875 19.6875H2.8125C2.06658 19.6875 1.35121 19.3912 0.823762 18.8637C0.296316 18.3363 0 17.6209 0 16.875V5.625ZM2.8125 4.21875C2.43954 4.21875 2.08185 4.36691 1.81813 4.63063C1.55441 4.89435 1.40625 5.25204 1.40625 5.625V5.93016L11.25 11.8364L21.0938 5.93016V5.625C21.0938 5.25204 20.9456 4.89435 20.6819 4.63063C20.4181 4.36691 20.0605 4.21875 19.6875 4.21875H2.8125ZM21.0938 7.56984L14.4731 11.5425L21.0938 15.6164V7.56984ZM21.0459 17.2392L13.1147 12.3581L11.25 13.4761L9.38531 12.3581L1.45406 17.2378C1.53397 17.5371 1.71045 17.8016 1.95608 17.9902C2.20171 18.1789 2.50277 18.2812 2.8125 18.2812H19.6875C19.997 18.2813 20.298 18.1792 20.5436 17.9908C20.7892 17.8024 20.9658 17.5382 21.0459 17.2392ZM1.40625 15.6164L8.02688 11.5425L1.40625 7.56984V15.6164Z" fill="white"/>
</g>
</g>
</g>
<defs>
<clipPath id="clip0_1_349">
<rect width="22.5" height="22.5" fill="white"/>
</clipPath>
<clipPath id="clip1_1_349">
<rect width="22.5" height="22.5" fill="white"/>
</clipPath>
<clipPath id="clip2_1_349">
<rect width="22.5" height="22.5" fill="white"/>
</clipPath>
</defs>
</svg>
