<svg width="19" height="19" viewBox="0 0 19 19" fill="none" xmlns="http://www.w3.org/2000/svg">
<g clip-path="url(#clip0_1_700)">
<g clip-path="url(#clip1_1_700)">
<g clip-path="url(#clip2_1_700)">
<path d="M9.45706 0C6.89065 0 6.56793 0.0118213 5.55957 0.0567424C4.55121 0.104028 3.86439 0.262433 3.26269 0.496496C2.63124 0.733307 2.05944 1.10577 1.5876 1.5876C1.10577 2.05944 0.733307 2.63124 0.496496 3.26269C0.262433 3.86321 0.102846 4.55121 0.0567424 5.55602C0.0118213 6.56675 0 6.88829 0 9.45825C0 12.0258 0.0118213 12.3474 0.0567424 13.3557C0.104028 14.3629 0.262433 15.0497 0.496496 15.6514C0.738833 16.2732 1.06156 16.8005 1.5876 17.3265C2.11247 17.8526 2.6397 18.1765 3.2615 18.4176C3.86439 18.6517 4.55003 18.8113 5.55721 18.8574C6.56675 18.9023 6.88829 18.9141 9.45706 18.9141C12.0258 18.9141 12.3462 18.9023 13.3557 18.8574C14.3617 18.8101 15.0509 18.6517 15.6526 18.4176C16.2836 18.1807 16.855 17.8082 17.3265 17.3265C17.8526 16.8005 18.1753 16.2732 18.4176 15.6514C18.6505 15.0497 18.8101 14.3629 18.8574 13.3557C18.9023 12.3474 18.9141 12.0258 18.9141 9.45706C18.9141 6.88829 18.9023 6.56675 18.8574 5.55721C18.8101 4.55121 18.6505 3.86321 18.4176 3.26269C18.1808 2.63124 17.8084 2.05944 17.3265 1.5876C16.8547 1.10577 16.2829 0.733307 15.6514 0.496496C15.0486 0.262433 14.3606 0.102846 13.3546 0.0567424C12.345 0.0118213 12.0247 0 9.4547 0H9.45706ZM8.60947 1.70464H9.45825C11.9833 1.70464 12.2824 1.71291 13.2789 1.75901C14.201 1.80039 14.7022 1.95525 15.0355 2.0841C15.4765 2.25551 15.7921 2.4612 16.1231 2.7922C16.4541 3.1232 16.6586 3.43764 16.83 3.87976C16.9601 4.21194 17.1137 4.71316 17.1551 5.63523C17.2012 6.63177 17.2107 6.93085 17.2107 9.4547C17.2107 11.9786 17.2012 12.2788 17.1551 13.2754C17.1137 14.1974 16.9589 14.6975 16.83 15.0308C16.6773 15.4409 16.4355 15.812 16.1219 16.1172C15.7909 16.4482 15.4765 16.6527 15.0344 16.8241C14.7034 16.9542 14.2021 17.1078 13.2789 17.1504C12.2824 17.1953 11.9833 17.2059 9.45825 17.2059C6.93321 17.2059 6.63295 17.1953 5.63641 17.1504C4.71435 17.1078 4.2143 16.9542 3.88094 16.8241C3.47054 16.6719 3.09908 16.4305 2.79338 16.1172C2.47926 15.8117 2.23698 15.4403 2.0841 15.0296C1.95525 14.6975 1.80039 14.1962 1.75901 13.2742C1.71409 12.2776 1.70464 11.9786 1.70464 9.45234C1.70464 6.92612 1.71409 6.6294 1.75901 5.63286C1.80157 4.7108 1.95525 4.20958 2.08528 3.87621C2.25669 3.43528 2.46238 3.11965 2.79338 2.78865C3.12438 2.45765 3.43882 2.25315 3.88094 2.08174C4.2143 1.9517 4.71435 1.79802 5.63641 1.75547C6.50882 1.71527 6.84691 1.70345 8.60947 1.70227V1.70464ZM14.506 3.27451C14.3569 3.27451 14.2094 3.30386 14.0717 3.36089C13.934 3.41792 13.8089 3.50152 13.7035 3.6069C13.5981 3.71228 13.5145 3.83738 13.4575 3.97507C13.4005 4.11275 13.3711 4.26033 13.3711 4.40936C13.3711 4.55839 13.4005 4.70596 13.4575 4.84364C13.5145 4.98133 13.5981 5.10643 13.7035 5.21181C13.8089 5.31719 13.934 5.40079 14.0717 5.45782C14.2094 5.51485 14.3569 5.5442 14.506 5.5442C14.8069 5.5442 15.0956 5.42464 15.3084 5.21181C15.5212 4.99899 15.6408 4.71034 15.6408 4.40936C15.6408 4.10838 15.5212 3.81972 15.3084 3.6069C15.0956 3.39407 14.8069 3.27451 14.506 3.27451ZM9.45825 4.60086C8.81407 4.59081 8.17432 4.70901 7.57626 4.94858C6.9782 5.18814 6.43378 5.54429 5.97468 5.99628C5.51558 6.44827 5.15098 6.98708 4.90212 7.58133C4.65325 8.17558 4.52509 8.8134 4.52509 9.45765C4.52509 10.1019 4.65325 10.7397 4.90212 11.334C5.15098 11.9282 5.51558 12.467 5.97468 12.919C6.43378 13.371 6.9782 13.7272 7.57626 13.9667C8.17432 14.2063 8.81407 14.3245 9.45825 14.3144C10.7332 14.2946 11.9493 13.7741 12.8438 12.8654C13.7384 11.9568 14.2399 10.7328 14.2399 9.45765C14.2399 8.18252 13.7384 6.95852 12.8438 6.04986C11.9493 5.1412 10.7332 4.62075 9.45825 4.60086ZM9.45825 6.30432C9.87227 6.30432 10.2822 6.38586 10.6648 6.5443C11.0473 6.70274 11.3948 6.93497 11.6876 7.22773C11.9803 7.52049 12.2126 7.86805 12.371 8.25056C12.5294 8.63307 12.611 9.04304 12.611 9.45706C12.611 9.87109 12.5294 10.2811 12.371 10.6636C12.2126 11.0461 11.9803 11.3936 11.6876 11.6864C11.3948 11.9792 11.0473 12.2114 10.6648 12.3698C10.2822 12.5283 9.87227 12.6098 9.45825 12.6098C8.62209 12.6098 7.82017 12.2776 7.22892 11.6864C6.63766 11.0951 6.3055 10.2932 6.3055 9.45706C6.3055 8.6209 6.63766 7.81899 7.22892 7.22773C7.82017 6.63648 8.62209 6.30432 9.45825 6.30432Z" fill="white"/>
</g>
</g>
</g>
<defs>
<clipPath id="clip0_1_700">
<rect width="18.9141" height="18.9141" fill="white"/>
</clipPath>
<clipPath id="clip1_1_700">
<rect width="18.9141" height="18.9141" fill="white"/>
</clipPath>
<clipPath id="clip2_1_700">
<rect width="18.9141" height="18.9141" fill="white"/>
</clipPath>
</defs>
</svg>
