<svg width="19" height="19" viewBox="0 0 19 19" fill="none" xmlns="http://www.w3.org/2000/svg">
<g clip-path="url(#clip0_1_706)">
<g clip-path="url(#clip1_1_706)">
<path d="M16.0782 2.74971C15.2112 1.87433 14.1786 1.18036 13.0406 0.708274C11.9026 0.236187 10.682 -0.004564 9.44997 6.55198e-05C4.2876 6.55198e-05 0.080385 4.20609 0.0756565 9.36965C0.0756565 11.0235 0.508317 12.6323 1.32517 14.0568L0 18.9142L4.96969 17.6115C6.3439 18.3612 7.88454 18.7535 9.44997 18.7522H9.4547C14.6183 18.7522 18.8243 14.5462 18.829 9.37793C18.8301 8.14621 18.5875 6.92646 18.1151 5.7889C17.6428 4.65134 16.9513 3.61845 16.0782 2.74971ZM9.44997 17.1658C8.05408 17.1647 6.68404 16.7891 5.48273 16.0783L5.19902 15.908L2.25078 16.6811L3.03808 13.805L2.85367 13.5083C2.07323 12.2674 1.66048 10.8308 1.66326 9.36492C1.66326 5.07851 5.15883 1.58176 9.4547 1.58176C10.4781 1.57992 11.4918 1.78068 12.4372 2.17246C13.3827 2.56424 14.2413 3.13929 14.9634 3.86446C15.688 4.58692 16.2624 5.44561 16.6535 6.39106C17.0447 7.33651 17.2449 8.35003 17.2426 9.3732C17.2379 13.675 13.7423 17.1658 9.44997 17.1658ZM13.7234 11.3332C13.4905 11.2161 12.3403 10.6499 12.124 10.5695C11.9088 10.4927 11.7516 10.4525 11.5979 10.6865C11.4407 10.9194 10.9915 11.4502 10.8567 11.6027C10.7219 11.7599 10.5825 11.7777 10.3484 11.6618C10.1155 11.5436 9.36013 11.2977 8.46644 10.4974C7.76898 9.87679 7.30203 9.1084 7.16254 8.87552C7.02778 8.64146 7.14954 8.51615 7.26657 8.39912C7.36942 8.29509 7.49945 8.12486 7.61648 7.9901C7.73469 7.85534 7.77371 7.75604 7.85054 7.6C7.92738 7.44159 7.89074 7.30683 7.83281 7.1898C7.77371 7.07277 7.30676 5.91782 7.10935 5.45206C6.92021 4.99221 6.72752 5.05605 6.5833 5.05014C6.44853 5.04186 6.29131 5.04186 6.13409 5.04186C6.01537 5.04488 5.89856 5.07238 5.79095 5.12262C5.68335 5.17286 5.58727 5.24477 5.50874 5.33385C5.29359 5.56791 4.69189 6.13415 4.69189 7.2891C4.69189 8.44404 5.5312 9.55406 5.64941 9.71129C5.76526 9.86851 7.29731 12.2316 9.64857 13.2482C10.2042 13.4906 10.6416 13.6336 10.9832 13.7424C11.5447 13.922 12.0518 13.8949 12.4561 13.8369C12.9053 13.7684 13.8404 13.2695 14.0378 12.7222C14.2317 12.1737 14.2317 11.7055 14.1726 11.6074C14.1147 11.5081 13.9574 11.4502 13.7234 11.3332Z" fill="white"/>
</g>
</g>
<defs>
<clipPath id="clip0_1_706">
<rect width="18.9141" height="18.9141" fill="white"/>
</clipPath>
<clipPath id="clip1_1_706">
<rect width="18.9141" height="18.9141" fill="white"/>
</clipPath>
</defs>
</svg>
